# xmcd
#
# Track frame offsets:
#	150
#	10714
#	22986
#	38302
#	49448
#	66672
#	76883
#	88798
#	97484
#	110541
#	122604
#	131426
#
# Disc length: 1909 seconds
#
# Revision: 1
# Processed by: cddbd v1.5.1PL2 Copyright (c) Steve Scherf et al.
# Submitted via: audiograbber 1.80
#
DISCID=9a07730c
DTITLE=The Stacy Cats - The Stacy Cats
DYEAR=1900
DGENRE=
TTITLE0=I'm Coming Home
TTITLE1=Honey Hush
TTITLE2=Shame, Shame, Shame
TTITLE3=Plan B
TTITLE4=KAW - Liga
TTITLE5=Take Me Back
TTITLE6=Crazy Love
TTITLE7=She's Dynamite
TTITLE8=Pedal Pushin' Daddy
TTITLE9=Tigerfeet
TTITLE10=All Mama's Children
TTITLE11=Tornado
EXTD=
EXTT0=
EXTT1=
EXTT2=
EXTT3=
EXTT4=
EXTT5=
EXTT6=
EXTT7=
EXTT8=
EXTT9=
EXTT10=
EXTT11=
PLAYORDER=
